<?xml version="1.0" standalone="no"?><svg xmlns="http://www.w3.org/2000/svg" viewBox="0 0 1440 320"><path fill="#ffff" fill-opacity="1" d="M0,224L26.7,208C53.3,192,107,160,160,128C213.3,96,267,64,320,69.3C373.3,75,427,117,480,149.3C533.3,181,587,203,640,192C693.3,181,747,139,800,128C853.3,117,907,139,960,160C1013.3,181,1067,203,1120,186.7C1173.3,171,1227,117,1280,133.3C1333.3,149,1387,235,1413,277.3L1440,320L1440,320L1413.3,320C1386.7,320,1333,320,1280,320C1226.7,320,1173,320,1120,320C1066.7,320,1013,320,960,320C906.7,320,853,320,800,320C746.7,320,693,320,640,320C586.7,320,533,320,480,320C426.7,320,373,320,320,320C266.7,320,213,320,160,320C106.7,320,53,320,27,320L0,320Z"></path></svg>